PathFileType	4	(X/Y/Z)	C:/Users/beibeiliu/ov580/test_trc/User3\sequence.36_training_dense_left.trc
DataRate	CameraRate	NumFrames	NumMarkers	Units	OrigDataRate	OrigDataStartFrame	OrigNumFrames
120	120	17	19	mm	120	1	67
Frame#	Time	ThumbCMC			ThumbMCP			ThumbIP			ThumbTip			IndexMCP			IndexPIP			IndexTip			MiddleMCP			MiddlePIP			MiddleTip			RingMCP			RingPIP			RingTip			PinkyMCP			PinkyPIP			PinkyTip			BackHand1			BackHand2			BackHand3	
		X0	Y0	Z0	X1	Y1	Z1	X2	Y2	Z2	X3	Y3	Z3	X4	Y4	Z4	X5	Y5	Z5	X6	Y6	Z6	X7	Y7	Z7	X8	Y8	Z8	X9	Y9	Z9	X10	Y10	Z10	X11	Y11	Z11	X12	Y12	Z12	X13	Y13	Z13	X14	Y14	Z14	X15	Y15	Z15	X16	Y16	Z16	X17	Y17	Z17	X18	Y18	Z18	
0	0	-86.8949	-5.55636	19.5536	-69.4977	-13.4815	-1.91303	-50.4793	-19.2878	-25.409	-40.2465	-27.5709	-47.7098	-110.068	5.4071	-56.5314	-103.21	2.92328	-83.4525	-99.9859	-6.03755	-113.862	-134.963	6.40548	-62.4044	-138.124	1.35199	-91.6706	-141.764	-14.4945	-120.798	-153.377	0.991754	-55.0067	-159.123	-1.73886	-76.5879	-166.026	-12.2002	-101.814	-175.507	-6.85648	-35.8209	-182.752	-10.8925	-53.5153	-187.943	-17.8734	-77.6561	-149.161	14.397	-4.91538	-147.992	16.614	29.9019	-116.62	16.4328	7.73973	
1	0.00833333	-89.1358	-6.39488	17.7598	-69.0921	-12.5203	-2.61419	-55.896	-19.7143	-25.7597	-41.1743	-27.8377	-46.6016	-110.957	5.98894	-57.7288	-105.332	3.64735	-87.3199	-102.623	-5.51372	-114.247	-135.07	6.78144	-64.7294	-137.442	2.47905	-89.1423	-142.66	-14.0135	-120.554	-158.161	1.69908	-52.3475	-158.898	-2.17094	-76.8726	-166.927	-13.4155	-106.534	-172.875	-7.01755	-32.2636	-184.938	-10.9	-58.2369	-191.789	-15.9868	-76.1999	-151.53	13.326	-0.712825	-147.889	17.5269	27.2964	-116.48	15.4065	6.32328	
2	0.0166667	-89.0891	-6.81331	19.6372	-70.8458	-12.6887	-0.126172	-51.7596	-19.3771	-28.3962	-43.2467	-26.9756	-42.7723	-105.589	6.33051	-61.1744	-105.323	4.30921	-85.0191	-98.5541	-3.09837	-110.404	-136.945	7.93727	-61.1966	-138.028	2.389	-90.088	-139.815	-12.3288	-119.485	-152.763	2.55006	-51.0357	-160.146	-2.87797	-80.951	-168.13	-13.0789	-105.031	-174.59	-4.69387	-33.3579	-184.97	-9.98941	-55.8512	-190.357	-17.4199	-75.9296	-151.739	15.0045	-1.17315	-146.773	16.5896	27.0686	-117.3	15.59	9.33619	
3	0.025	-85.7475	-6.23229	14.8395	-71.048	-12.9729	-3.43546	-53.3836	-19.5378	-26.7399	-41.9113	-27.0926	-41.3335	-108.156	6.45764	-60.7195	-100.924	4.40357	-88.513	-103.999	-2.50752	-109.629	-134.169	8.08978	-60.2964	-138.506	2.17019	-92.2497	-142.746	-12.8604	-119.714	-152.646	3.32988	-53.8854	-160.867	-1.9501	-79.7702	-165.391	-11.0248	-101.119	-169.827	-5.01457	-33.2079	-180.623	-8.09009	-56.9084	-190.863	-15.9421	-76.7459	-149.8	14.4471	-4.35111	-150.107	17.3896	26.2914	-115.571	16.0141	6.09624	
4	0.0333333	-90.9759	-4.42038	18.3319	-70.6621	-9.42545	-5.52031	-51.5278	-15.0588	-25.4579	-39.3515	-21.8672	-43.1242	-106.634	8.0696	-57.6883	-103.703	6.40079	-83.9456	-99.967	-1.33629	-109.765	-133.662	9.16184	-66.4504	-136.317	0.0572025	-94.9318	-139.172	-14.2803	-119.05	-157.832	0.80333	-52.8288	-159.873	-4.71416	-82.136	-166.542	-19.4096	-104.763	-175.765	-7.98194	-35.5533	-178.471	-12.9049	-56.9536	-187.989	-25.1686	-78.1372	-152.42	15.3714	-4.0386	-146.804	17.726	23.8968	-118.376	16.5111	5.92024	
5	0.0416667	-94.1789	8.36275	12.6119	-75.4559	6.48933	-6.89451	-56.9685	4.66855	-31.6953	-41.0614	0.919561	-46.8193	-111.523	11.5508	-58.6211	-111.031	5.63213	-89.6402	-103.042	-1.55776	-110.67	-141.157	1.74668	-66.6002	-137.695	-6.44238	-93.7303	-136.354	-27.7101	-118.248	-158.518	-10.575	-54.3271	-159.208	-21.1788	-82.3588	-158.009	-38.0957	-100.928	-170.739	-21.9718	-36.9601	-172.261	-31.4712	-56.45	-172.328	-52.0172	-74.8995	-155.34	9.24056	-2.90881	-156.329	11.9801	24.1504	-123.717	21.3788	4.85512	
6	0.05	-102.589	24.4973	8.6936	-83.8857	26.6122	-12.3504	-67.9979	26.2684	-32.164	-54.1356	26.9791	-51.2197	-123.323	8.27966	-66.8322	-114.521	6.13452	-88.7793	-106.646	-5.46164	-112.125	-142.67	-11.1106	-68.7842	-134.1	-18.4333	-92.5037	-119.187	-40.9851	-117.344	-149.344	-23.8564	-53.4992	-145.963	-39.2351	-78.9755	-131.275	-58.1087	-100.006	-159.605	-44.417	-36.2779	-152.416	-58.8854	-57.8831	-141.303	-74.9012	-70.5836	-157.834	-4.08689	-4.6195	-163.312	0.102243	23.7723	-140.274	20.9202	2.65333	
7	0.0583333	-120.374	33.809	8.24275	-103.535	40.4684	-15.1389	-88.6929	48.9839	-42.8789	-75.4698	52.5372	-58.9614	-132.788	4.79549	-68.9549	-120.05	1.49951	-96.0155	-108.096	-8.22016	-113.398	-139.846	-21.235	-69.6171	-127.326	-29.778	-92.4301	-97.4292	-42.5	-113.881	-140.907	-36.6364	-54.4438	-129.02	-54.0192	-75.7018	-107.846	-64.7921	-90.3276	-141.203	-58.6849	-36.4481	-129.16	-68.2198	-51.2411	-106.393	-80.3651	-65.3796	-160.218	-22.3258	-3.98716	-163.73	-14.4068	21.4989	-152.593	15.8726	-1.81526	
8	0.0666667	-134.187	31.5111	1.21696	-121.932	41.2049	-23.6086	-111.34	48.5381	-47.939	-100.663	55.4922	-70.485	-142.135	-2.78007	-69.2789	-127.22	-6.79797	-99.0683	-104.41	-8.30177	-116.442	-141.941	-28.4293	-67.7583	-122.071	-39.0987	-94.2438	-91.0514	-40.82	-107.622	-135.599	-47.0842	-55.481	-118.246	-58.1187	-74.4432	-89.7483	-59.0328	-88.2283	-130.209	-63.5947	-31.3343	-114.733	-70.9944	-48.8216	-89.2073	-76.3535	-61.1291	-157.55	-31.0393	-6.20745	-161.617	-24.8188	24.8429	-159.21	4.25937	-1.63261	
9	0.075	-143.665	24.7766	1.72087	-136.757	40.6938	-26.6071	-130.607	49.6219	-51.206	-121.032	49.8888	-72.1757	-149.827	-10.5617	-71.2493	-136.453	-16.0658	-95.7274	-109.021	-15.6043	-111.294	-146.126	-34.6859	-70.616	-125.98	-38.7629	-94.6851	-90.8258	-36.2618	-100.841	-137.234	-50.5363	-57.7854	-117.212	-61.9378	-73.2546	-86.3869	-55.2958	-81.6119	-129.321	-63.8292	-33.0184	-107.705	-72.9699	-50.6058	-84.4862	-67.6522	-59.7988	-159.036	-41.2302	-3.6778	-161.986	-33.1748	22.1602	-165.324	-2.69368	-0.512121	
10	0.0833333	-147.965	22.4923	1.27311	-142.648	33.2859	-24.5075	-139.031	41.7118	-52.5033	-133.161	44.8306	-76.4701	-154.845	-15.617	-69.507	-138.635	-15.188	-94.7604	-105.389	-13.9495	-99.2775	-150.477	-37.494	-70.5583	-128.506	-38.1788	-90.9275	-91.6952	-33.3131	-84.6135	-139.853	-56.9638	-52.9036	-117.823	-60.1038	-72.215	-85.8817	-45.6167	-71.1683	-132.854	-65.812	-33.9654	-110.71	-71.4247	-52.4966	-86.8774	-58.7206	-55.7637	-162.124	-44.0578	-1.55207	-162.395	-36.1243	23.1972	-169.151	-8.32977	2.00976	
11	0.0916667	-144.865	18.6405	8.76497	-140.973	31.8751	-20.9299	-138.611	36.2311	-49.8862	-133.038	30.8561	-72.4614	-158.582	-10.2466	-66.8861	-136.048	-9.89047	-89.9385	-107.815	-6.87095	-83.1419	-153.499	-31.6451	-65.4262	-124.105	-32.5482	-83.8723	-93.9166	-21.7658	-58.5848	-144.273	-50.356	-50.9807	-118.344	-48.5174	-68.4609	-91.4332	-36.9952	-52.1483	-137.072	-61.6269	-40.1151	-116.257	-61.9416	-52.1112	-89.4562	-46.0665	-43.0283	-167.87	-43.343	-1.15174	-165.812	-38.0043	28.5826	-169.908	-4.42769	3.98275	
12	0.1	-145.33	15.9185	5.41659	-138.368	22.2568	-22.1422	-134.649	25.8851	-53.3502	-130.255	16.6651	-76.1993	-159.844	-8.94128	-67.7322	-137.435	-7.31432	-89.4481	-109.523	-4.23068	-78.8948	-151.137	-28.3429	-67.2997	-119.018	-28.7268	-78.1373	-98.7707	-20.5074	-48.7498	-142.274	-49.8915	-52.6849	-111.782	-42.045	-63.2925	-94.9331	-30.4247	-38.0318	-137.556	-62.5778	-36.9302	-114.067	-58.7327	-50.0187	-93.1021	-38.8768	-32.9518	-167.666	-38.8851	-4.07809	-165.608	-34.9515	29.8759	-169.197	-5.59297	7.32043	
13	0.108333	-140.302	19.6873	6.67634	-136.729	27.9789	-26.8828	-132.515	22.0091	-57.1337	-124.922	6.23269	-76.5274	-157.447	-11.7831	-65.1908	-138.647	-12.1066	-92.028	-104.434	-6.84223	-81.3201	-146.478	-29.9544	-70.7715	-114.821	-27.633	-79.7804	-95.5663	-19.0757	-49.5511	-137.105	-46.4549	-56.5	-109.173	-44.499	-62.0939	-93.0819	-30.2995	-36.0753	-133.916	-58.2898	-43.6711	-105.724	-54.485	-48.1018	-92.6937	-38.1444	-29.1385	-165.299	-38.6412	-6.53246	-165.987	-34.2508	24.9428	-168.417	-3.86933	6.76957	
14	0.116667	-137.93	24.0107	7.12477	-132.315	33.3877	-21.2451	-126.82	31.1262	-52.8521	-119.789	14.3928	-72.4397	-148.525	-7.68373	-68.9249	-126.862	-8.31192	-90.9575	-95.667	-3.62889	-79.5491	-140.94	-23.8334	-68.5039	-109.043	-23.3901	-80.1795	-88.7033	-18.0251	-43.6025	-131.694	-42.1977	-56.3115	-100.87	-40.9754	-60.3395	-88.3457	-27.9463	-34.9993	-127.319	-59.1513	-43.5961	-102.627	-54.8811	-48.6007	-86.6372	-36.7468	-23.5888	-162.507	-38.8259	-4.62734	-160.771	-31.0588	22.5302	-163.544	-2.65496	3.23969	
15	0.125	-134.796	24.9732	8.91075	-129.137	32.2173	-20.7184	-125.374	33.9692	-53.2876	-115.969	24.865	-71.4329	-143.634	-0.439267	-66.5972	-118.34	1.3602	-87.5818	-87.039	0.550292	-69.9753	-137.98	-22.4555	-66.2439	-102.461	-17.524	-76.8624	-85.4361	-13.2009	-43.8698	-130.069	-39.8546	-54.1982	-99.8068	-36.1888	-60.0102	-86.4914	-25.8305	-31.0975	-125	-56.2691	-41.8793	-99.9393	-48.4316	-47.4447	-86.4519	-32.0839	-24.1149	-159.218	-34.3286	-7.38041	-159.794	-29.8574	24.0455	-163.415	1.14647	1.83443	
16	0.133333	-136.07	26.415	11.5594	-131.359	34.0499	-22.5451	-126.076	33.0841	-49.386	-119.223	19.9392	-73.0875	-144.43	-0.555977	-63.4003	-115.831	-1.5721	-84.5312	-88.5322	2.85167	-71.0377	-138.41	-22.7689	-63.5798	-105.095	-20.8358	-76.4099	-86.1472	-13.7007	-44.0663	-129.321	-35.5876	-54.6588	-97.7144	-36.4783	-58.265	-86.2944	-22.8236	-27.3694	-124.129	-53.1712	-41.7032	-100.056	-47.8031	-46.798	-87.0717	-32.9103	-24.7523	-159.726	-34.1529	-2.01595	-161.194	-29.2312	23.3115	-163.419	-0.691996	2.93415	
